<svg width="100" height="100" viewBox="0 0 100 100" fill="none" xmlns="http://www.w3.org/2000/svg">
  <!-- Amber Background -->
  <rect width="100" height="100" rx="24" fill="#D97706"/>
  
  <!-- Connecting Neural Lines (White) -->
  <path d="M30 30L45 45M70 30L55 45M30 70L45 55M70 70L55 55" stroke="white" stroke-width="2" stroke-linecap="round" stroke-dasharray="4 4" stroke-opacity="0.4"/>
  
  <!-- Outer Orbit Nodes (White) -->
  <circle cx="30" cy="30" r="3" fill="white"/>
  <circle cx="70" cy="30" r="3" fill="white"/>
  <circle cx="30" cy="70" r="3" fill="white"/>
  <circle cx="70" cy="70" r="3" fill="white"/>
  
  <!-- Central Intelligence Spark (White) -->
  <path d="M50 25L58 42L75 50L58 58L50 75L42 58L25 50L42 42L50 25Z" fill="white"/>
  
  <!-- Inner Brilliance (Amber highlight for depth) -->
  <path d="M50 35L54 46L65 50L54 54L50 65L46 54L35 50L46 46L50 35Z" fill="#D97706" fill-opacity="0.3"/>
</svg>
